<svg width="0" height="0" class="hidden">
    <symbol id="layout-dashboard" xmlns="http://www.w3.org/2000/svg" width="24" height="24" viewBox="0 0 24 24" fill="currentColor"><path stroke="none" d="M0 0h24v24H0z" fill="none"/><path d="M9 3a2 2 0 0 1 2 2v6a2 2 0 0 1 -2 2h-4a2 2 0 0 1 -2 -2v-6a2 2 0 0 1 2 -2zm0 12a2 2 0 0 1 2 2v2a2 2 0 0 1 -2 2h-4a2 2 0 0 1 -2 -2v-2a2 2 0 0 1 2 -2zm10 -4a2 2 0 0 1 2 2v6a2 2 0 0 1 -2 2h-4a2 2 0 0 1 -2 -2v-6a2 2 0 0 1 2 -2zm0 -8a2 2 0 0 1 2 2v2a2 2 0 0 1 -2 2h-4a2 2 0 0 1 -2 -2v-2a2 2 0 0 1 2 -2z" /></symbol>

    <symbol id="plus" xmlns="http://www.w3.org/2000/svg" width="24" height="24" viewBox="0 0 24 24" fill="none" stroke="currentColor" stroke-width="2" stroke-linecap="round" stroke-linejoin="round"><path stroke="none" d="M0 0h24v24H0z" fill="none"/><path d="M12 5l0 14" /><path d="M5 12l14 0" /></symbol>
</svg>