<svg width="0" height="0" class="hidden">
    <symbol id="layout-dashboard" xmlns="http://www.w3.org/2000/svg" viewBox="0 0 24 24" fill="currentColor"><path stroke="none" d="M0 0h24v24H0z" fill="none"/><path d="M9 3a2 2 0 0 1 2 2v6a2 2 0 0 1 -2 2h-4a2 2 0 0 1 -2 -2v-6a2 2 0 0 1 2 -2zm0 12a2 2 0 0 1 2 2v2a2 2 0 0 1 -2 2h-4a2 2 0 0 1 -2 -2v-2a2 2 0 0 1 2 -2zm10 -4a2 2 0 0 1 2 2v6a2 2 0 0 1 -2 2h-4a2 2 0 0 1 -2 -2v-6a2 2 0 0 1 2 -2zm0 -8a2 2 0 0 1 2 2v2a2 2 0 0 1 -2 2h-4a2 2 0 0 1 -2 -2v-2a2 2 0 0 1 2 -2z" /></symbol>

    <symbol id="plus" xmlns="http://www.w3.org/2000/svg" viewBox="0 0 24 24" fill="none" stroke="currentColor" stroke-width="2" stroke-linecap="round" stroke-linejoin="round"><path stroke="none" d="M0 0h24v24H0z" fill="none"/><path d="M12 5l0 14" /><path d="M5 12l14 0" /></symbol>

    <symbol id="wallet" xmlns="http://www.w3.org/2000/svg" viewBox="0 0 24 24" fill="none" stroke="currentColor" stroke-width="2" stroke-linecap="round" stroke-linejoin="round"><path stroke="none" d="M0 0h24v24H0z" fill="none"/><path d="M17 8v-3a1 1 0 0 0 -1 -1h-10a2 2 0 0 0 0 4h12a1 1 0 0 1 1 1v3m0 4v3a1 1 0 0 1 -1 1h-12a2 2 0 0 1 -2 -2v-12" /><path d="M20 12v4h-4a2 2 0 0 1 0 -4h4" /></symbol>

    <symbol id="trending-up" xmlns="http://www.w3.org/2000/svg" viewBox="0 0 24 24" fill="none" stroke="currentColor" stroke-width="2" stroke-linecap="round" stroke-linejoin="round"><path stroke="none" d="M0 0h24v24H0z" fill="none"/><path d="M3 17l6 -6l4 4l8 -8" /><path d="M14 7l7 0l0 7" /></symbol>

    <symbol id="chart-area-line" xmlns="http://www.w3.org/2000/svg" viewBox="0 0 24 24" fill="none" stroke="currentColor" stroke-width="2" stroke-linecap="round" stroke-linejoin="round"><path stroke="none" d="M0 0h24v24H0z" fill="none"/><path d="M4 19l4 -6l4 2l4 -5l4 4l0 5l-16 0" /><path d="M4 12l3 -4l4 2l5 -6l4 4" /></symbol>

    <symbol id="rocket" xmlns="http://www.w3.org/2000/svg" viewBox="0 0 24 24" fill="none" stroke="currentColor" stroke-width="2" stroke-linecap="round" stroke-linejoin="round"><path stroke="none" d="M0 0h24v24H0z" fill="none"/><path d="M4 13a8 8 0 0 1 7 7a6 6 0 0 0 3 -5a9 9 0 0 0 6 -8a3 3 0 0 0 -3 -3a9 9 0 0 0 -8 6a6 6 0 0 0 -5 3" /><path d="M7 14a6 6 0 0 0 -3 6a6 6 0 0 0 6 -3" /><path d="M14 9a1 1 0 1 0 2 0a1 1 0 1 0 -2 0" /></symbol>

    <symbol id="search" xmlns="http://www.w3.org/2000/svg" viewBox="0 0 24 24" fill="none" stroke="currentColor" stroke-width="2" stroke-linecap="round" stroke-linejoin="round"><path stroke="none" d="M0 0h24v24H0z" fill="none"/><path d="M3 10a7 7 0 1 0 14 0a7 7 0 1 0 -14 0" /><path d="M21 21l-6 -6" /></symbol>

    <symbol id="filter-2" xmlns="http://www.w3.org/2000/svg" viewBox="0 0 24 24" fill="none" stroke="currentColor" stroke-width="2" stroke-linecap="round" stroke-linejoin="round"><path stroke="none" d="M0 0h24v24H0z" fill="none"/><path d="M4 6h16" /><path d="M6 12h12" /><path d="M9 18h6" /></symbol>

    <symbol id="minus" xmlns="http://www.w3.org/2000/svg" viewBox="0 0 24 24" fill="none" stroke="currentColor" stroke-width="2" stroke-linecap="round" stroke-linejoin="round"><path stroke="none" d="M0 0h24v24H0z" fill="none"/><path d="M5 12l14 0" /></symbol>

    <symbol id="arrow-upward" xmlns="http://www.w3.org/2000/svg" viewBox="0 0 24 24" fill="none" stroke="currentColor" stroke-width="2" stroke-linecap="round" stroke-linejoin="round"><path stroke="none" d="M0 0h24v24H0z" fill="none"/><path d="M12 5l0 14" /><path d="M18 11l-6 -6" /><path d="M6 11l6 -6" /></symbol>

    <symbol id="arrow-downward" xmlns="http://www.w3.org/2000/svg" viewBox="0 0 24 24" fill="none" stroke="currentColor" stroke-width="2" stroke-linecap="round" stroke-linejoin="round"><path stroke="none" d="M0 0h24v24H0z" fill="none"/><path d="M12 5l0 14" /><path d="M18 13l-6 6" /><path d="M6 13l6 6" /></symbol>

    <symbol id="dots-vertical" xmlns="http://www.w3.org/2000/svg" viewBox="0 0 24 24" fill="none" stroke="currentColor" stroke-width="2" stroke-linecap="round" stroke-linejoin="round"><path stroke="none" d="M0 0h24v24H0z" fill="none"/><path d="M11 12a1 1 0 1 0 2 0a1 1 0 1 0 -2 0" /><path d="M11 19a1 1 0 1 0 2 0a1 1 0 1 0 -2 0" /><path d="M11 5a1 1 0 1 0 2 0a1 1 0 1 0 -2 0" /></symbol>

    <symbol id="chevron-left" xmlns="http://www.w3.org/2000/svg" viewBox="0 0 24 24" fill="none" stroke="currentColor" stroke-width="2" stroke-linecap="round" stroke-linejoin="round"><path stroke="none" d="M0 0h24v24H0z" fill="none"/><path d="M15 6l-6 6l6 6" /></symbol>

    <symbol id="chevron-right" xmlns="http://www.w3.org/2000/svg" viewBox="0 0 24 24" fill="none" stroke="currentColor" stroke-width="2" stroke-linecap="round" stroke-linejoin="round"><path stroke="none" d="M0 0h24v24H0z" fill="none"/><path d="M9 6l6 6l-6 6" /></symbol>
</svg>