<svg width="0" height="0" class="hidden">
    <symbol id="layout-dashboard" xmlns="http://www.w3.org/2000/svg" viewBox="0 0 24 24" fill="currentColor"><path stroke="none" d="M0 0h24v24H0z" fill="none"/><path d="M9 3a2 2 0 0 1 2 2v6a2 2 0 0 1 -2 2h-4a2 2 0 0 1 -2 -2v-6a2 2 0 0 1 2 -2zm0 12a2 2 0 0 1 2 2v2a2 2 0 0 1 -2 2h-4a2 2 0 0 1 -2 -2v-2a2 2 0 0 1 2 -2zm10 -4a2 2 0 0 1 2 2v6a2 2 0 0 1 -2 2h-4a2 2 0 0 1 -2 -2v-6a2 2 0 0 1 2 -2zm0 -8a2 2 0 0 1 2 2v2a2 2 0 0 1 -2 2h-4a2 2 0 0 1 -2 -2v-2a2 2 0 0 1 2 -2z" /></symbol>

    <symbol id="plus" xmlns="http://www.w3.org/2000/svg" viewBox="0 0 24 24" fill="none" stroke="currentColor" stroke-width="2" stroke-linecap="round" stroke-linejoin="round"><path stroke="none" d="M0 0h24v24H0z" fill="none"/><path d="M12 5l0 14" /><path d="M5 12l14 0" /></symbol>

    <symbol id="wallet" xmlns="http://www.w3.org/2000/svg" viewBox="0 0 24 24" fill="none" stroke="currentColor" stroke-width="2" stroke-linecap="round" stroke-linejoin="round"><path stroke="none" d="M0 0h24v24H0z" fill="none"/><path d="M17 8v-3a1 1 0 0 0 -1 -1h-10a2 2 0 0 0 0 4h12a1 1 0 0 1 1 1v3m0 4v3a1 1 0 0 1 -1 1h-12a2 2 0 0 1 -2 -2v-12" /><path d="M20 12v4h-4a2 2 0 0 1 0 -4h4" /></symbol>

    <symbol id="trending-up" xmlns="http://www.w3.org/2000/svg" viewBox="0 0 24 24" fill="none" stroke="currentColor" stroke-width="2" stroke-linecap="round" stroke-linejoin="round"><path stroke="none" d="M0 0h24v24H0z" fill="none"/><path d="M3 17l6 -6l4 4l8 -8" /><path d="M14 7l7 0l0 7" /></symbol>

    <symbol id="chart-area-line" xmlns="http://www.w3.org/2000/svg" viewBox="0 0 24 24" fill="none" stroke="currentColor" stroke-width="2" stroke-linecap="round" stroke-linejoin="round"><path stroke="none" d="M0 0h24v24H0z" fill="none"/><path d="M4 19l4 -6l4 2l4 -5l4 4l0 5l-16 0" /><path d="M4 12l3 -4l4 2l5 -6l4 4" /></symbol>

    <symbol id="rocket" xmlns="http://www.w3.org/2000/svg" viewBox="0 0 24 24" fill="none" stroke="currentColor" stroke-width="2" stroke-linecap="round" stroke-linejoin="round"><path stroke="none" d="M0 0h24v24H0z" fill="none"/><path d="M4 13a8 8 0 0 1 7 7a6 6 0 0 0 3 -5a9 9 0 0 0 6 -8a3 3 0 0 0 -3 -3a9 9 0 0 0 -8 6a6 6 0 0 0 -5 3" /><path d="M7 14a6 6 0 0 0 -3 6a6 6 0 0 0 6 -3" /><path d="M14 9a1 1 0 1 0 2 0a1 1 0 1 0 -2 0" /></symbol>

    <symbol id="search" xmlns="http://www.w3.org/2000/svg" viewBox="0 0 24 24" fill="none" stroke="currentColor" stroke-width="2" stroke-linecap="round" stroke-linejoin="round"><path stroke="none" d="M0 0h24v24H0z" fill="none"/><path d="M3 10a7 7 0 1 0 14 0a7 7 0 1 0 -14 0" /><path d="M21 21l-6 -6" /></symbol>

    <symbol id="filter-2" xmlns="http://www.w3.org/2000/svg" viewBox="0 0 24 24" fill="none" stroke="currentColor" stroke-width="2" stroke-linecap="round" stroke-linejoin="round"><path stroke="none" d="M0 0h24v24H0z" fill="none"/><path d="M4 6h16" /><path d="M6 12h12" /><path d="M9 18h6" /></symbol>

    <symbol id="minus" xmlns="http://www.w3.org/2000/svg" viewBox="0 0 24 24" fill="none" stroke="currentColor" stroke-width="2" stroke-linecap="round" stroke-linejoin="round"><path stroke="none" d="M0 0h24v24H0z" fill="none"/><path d="M5 12l14 0" /></symbol>

    <symbol id="arrow-upward" xmlns="http://www.w3.org/2000/svg" viewBox="0 0 24 24" fill="none" stroke="currentColor" stroke-width="2" stroke-linecap="round" stroke-linejoin="round"><path stroke="none" d="M0 0h24v24H0z" fill="none"/><path d="M12 5l0 14" /><path d="M18 11l-6 -6" /><path d="M6 11l6 -6" /></symbol>

    <symbol id="arrow-downward" xmlns="http://www.w3.org/2000/svg" viewBox="0 0 24 24" fill="none" stroke="currentColor" stroke-width="2" stroke-linecap="round" stroke-linejoin="round"><path stroke="none" d="M0 0h24v24H0z" fill="none"/><path d="M12 5l0 14" /><path d="M18 13l-6 6" /><path d="M6 13l6 6" /></symbol>

    <symbol id="arrow-left" xmlns="http://www.w3.org/2000/svg" viewBox="0 0 24 24" fill="none" stroke="currentColor" stroke-width="2" stroke-linecap="round" stroke-linejoin="round"><path stroke="none" d="M0 0h24v24H0z" fill="none"/><path d="M5 12l14 0" /><path d="M5 12l6 6" /><path d="M5 12l6 -6" /></symbol>

    <symbol id="dots-vertical" xmlns="http://www.w3.org/2000/svg" viewBox="0 0 24 24" fill="none" stroke="currentColor" stroke-width="2" stroke-linecap="round" stroke-linejoin="round"><path stroke="none" d="M0 0h24v24H0z" fill="none"/><path d="M11 12a1 1 0 1 0 2 0a1 1 0 1 0 -2 0" /><path d="M11 19a1 1 0 1 0 2 0a1 1 0 1 0 -2 0" /><path d="M11 5a1 1 0 1 0 2 0a1 1 0 1 0 -2 0" /></symbol>

    <symbol id="chevron-left" xmlns="http://www.w3.org/2000/svg" viewBox="0 0 24 24" fill="none" stroke="currentColor" stroke-width="2" stroke-linecap="round" stroke-linejoin="round"><path stroke="none" d="M0 0h24v24H0z" fill="none"/><path d="M15 6l-6 6l6 6" /></symbol>

    <symbol id="chevron-right" xmlns="http://www.w3.org/2000/svg" viewBox="0 0 24 24" fill="none" stroke="currentColor" stroke-width="2" stroke-linecap="round" stroke-linejoin="round"><path stroke="none" d="M0 0h24v24H0z" fill="none"/><path d="M9 6l6 6l-6 6" /></symbol>

    <symbol id="chevron-down" xmlns="http://www.w3.org/2000/svg" viewBox="0 0 24 24" fill="none" stroke="currentColor" stroke-width="2" stroke-linecap="round" stroke-linejoin="round"><path stroke="none" d="M0 0h24v24H0z" fill="none"/><path d="M6 9l6 6l6 -6" /></symbol>

    <symbol id="close" xmlns="http://www.w3.org/2000/svg" viewBox="0 0 24 24" fill="none" stroke="currentColor" stroke-width="2" stroke-linecap="round" stroke-linejoin="round"><path stroke="none" d="M0 0h24v24H0z" fill="none"/><path d="M18 6l-12 12" /><path d="M6 6l12 12" /></symbol>

    <symbol id="pencil" xmlns="http://www.w3.org/2000/svg" viewBox="0 0 24 24" fill="none" stroke="currentColor" stroke-width="2" stroke-linecap="round" stroke-linejoin="round"><path stroke="none" d="M0 0h24v24H0z" fill="none"/><path d="M4 20h4l10.5 -10.5a2.828 2.828 0 1 0 -4 -4l-10.5 10.5v4" /><path d="M13.5 6.5l4 4" /></symbol>

    <symbol id="circle-check" xmlns="http://www.w3.org/2000/svg" viewBox="0 0 24 24" fill="currentColor" class="icon icon-tabler icons-tabler-filled icon-tabler-circle-check"><path stroke="none" d="M0 0h24v24H0z" fill="none"/><path d="M17 3.34a10 10 0 1 1 -14.995 8.984l-.005 -.324l.005 -.324a10 10 0 0 1 14.995 -8.336zm-1.293 5.953a1 1 0 0 0 -1.32 -.083l-.094 .083l-3.293 3.292l-1.293 -1.292l-.094 -.083a1 1 0 0 0 -1.403 1.403l.083 .094l2 2l.094 .083a1 1 0 0 0 1.226 0l.094 -.083l4 -4l.083 -.094a1 1 0 0 0 -.083 -1.32z" /></symbol>

    <symbol id="circle-plus" xmlns="http://www.w3.org/2000/svg" viewBox="0 0 24 24" fill="none" stroke="currentColor" stroke-width="2" stroke-linecap="round" stroke-linejoin="round"><path stroke="none" d="M0 0h24v24H0z" fill="none"/><path d="M3 12a9 9 0 1 0 18 0a9 9 0 0 0 -18 0" /><path d="M9 12h6" /><path d="M12 9v6" /></symbol>

    <symbol id="check" xmlns="http://www.w3.org/2000/svg" viewBox="0 0 24 24" fill="none" stroke="currentColor" stroke-width="2" stroke-linecap="round" stroke-linejoin="round"><path stroke="none" d="M0 0h24v24H0z" fill="none" /><path d="M5 12l5 5l10 -10" /></symbol>
</svg>